Coordinates
version=1
nRows=17
nColumns=33
inDegrees=yes

Units are S.I. units (second, meters, Newtons, ...)
Angles are in degrees.

endheader
time	ground_thorax_rot_x	ground_thorax_rot_y	ground_thorax_rot_z	ground_thorax_tx	ground_thorax_ty	ground_thorax_tz	clav_prot_r	clav_elev_r	scapula_abduction_r	scapula_elevation_r	scapula_upward_rot_r	scapula_winging_r	shoulder_elv_r	plane_of_elev_r	axial_rot_r	elbow_flexion_r	pro_sup_r	wrist_flex_r	wrist_dev_r	clav_prot_l	clav_elev_l	scapula_abduction_l	scapula_elevation_l	scapula_upward_rot_l	scapula_winging_l	shoulder_elv_l	plane_of_elev_l	axial_rot_l	elbow_flexion_l	pro_sup_l	wrist_flex_l	wrist_dev_l	
5.7000	37.797792	6.380884	12.404979	-84.404548	779.910891	11.878930	17.062694	40.716785	44.999994	42.751900	-30.189728	-1880.449344	-1734.392041	33.978900	22.521133	1448.370027	23.014915	16.762689	14.948288	8.497233	-45.000000	-44.999999	45.000000	-18.291364	3327.033833	-2813.335307	26.005553	0.759811	-720.302438	41.130293	12.221070	-18.941229	
5.7100	37.781521	6.109599	12.228513	-84.729516	780.489658	11.858533	16.931174	40.672467	44.999988	42.730379	-29.720534	-1880.586945	-1734.414422	33.951704	22.910724	1448.521157	23.255632	16.854194	14.822820	8.378142	-45.000000	-44.999998	45.000000	-17.992729	3327.068825	-2813.339657	25.904171	-0.006507	-720.192870	40.645527	12.202019	-18.949425	
5.7200	37.778092	5.858512	12.067611	-85.164345	781.085573	11.824172	16.832639	40.660490	44.999979	42.762840	-29.321527	-1880.707671	-1734.424248	33.922344	23.272436	1448.695846	23.479633	16.954848	14.712689	8.258534	-45.000000	-44.999996	45.000000	-17.719135	3327.128381	-2813.338385	25.806101	-0.734882	-720.055342	40.138709	12.186297	-18.962119	
5.7300	37.778884	5.654377	11.952108	-85.834687	781.718072	11.762004	16.763413	40.750099	44.999963	42.855564	-29.086259	-1880.802330	-1734.398737	33.903410	23.551034	1448.896745	23.655647	17.048397	14.526296	8.171994	-45.000000	-44.999993	45.000000	-17.509740	3327.229068	-2813.341222	25.712925	-1.391697	-719.905778	39.630893	12.157914	-18.990260	
5.7400	37.790979	5.496635	11.876165	-86.759557	782.394015	11.669066	16.735477	40.933303	44.999934	43.024037	-29.021155	-1880.865709	-1734.334319	33.893184	23.729674	1449.123570	23.783684	17.141323	14.294196	8.112024	-45.000000	-44.999987	45.000000	-17.368813	3327.370511	-2813.341583	25.631101	-1.954100	-719.741922	39.088167	12.126788	-19.027897	
5.7500	37.810185	5.402639	11.860200	-87.975061	783.125671	11.541592	16.801488	41.183923	44.999881	43.263113	-29.170285	-1880.904517	-1734.219433	33.906334	23.748850	1449.362371	23.852508	17.230627	14.015494	8.092008	-45.000000	-44.999977	45.000000	-17.336808	3327.556317	-2813.332217	25.572517	-2.398799	-719.579079	38.478931	12.099836	-19.068519	
5.7600	37.833976	5.348871	11.873937	-89.488058	783.924560	11.380152	16.902335	41.465199	44.999787	43.551739	-29.457776	-1880.938691	-1734.065628	33.933788	23.648232	1449.608236	23.879097	17.322071	13.708840	8.093046	-45.000000	-44.999958	45.000000	-17.359862	3327.784208	-2813.305609	25.537426	-2.723490	-719.422827	37.803453	12.082844	-19.112177	
5.7700	37.857806	5.340111	11.926041	-91.292596	784.803273	11.188334	17.077821	41.744153	44.999619	43.872801	-29.879153	-1880.981084	-1733.873904	33.981621	23.417593	1449.848431	23.869854	17.414456	13.380021	8.118954	-45.000000	-44.999925	45.000000	-17.457357	3328.052269	-2813.256927	25.529490	-2.941450	-719.277203	37.052134	12.080014	-19.153608	
5.7800	37.873525	5.345362	11.982292	-93.381799	785.775928	10.971581	17.239196	41.978551	44.999318	44.183391	-30.323079	-1881.063664	-1733.659176	34.036736	23.141671	1450.081681	23.853741	17.512850	13.038274	8.147784	-45.000000	-44.999866	45.000000	-17.555457	3328.358658	-2813.179858	25.539719	-3.088633	-719.143566	36.261374	12.090549	-19.199067	
5.7900	37.874313	5.366145	12.050492	-95.748182	786.856490	10.736755	17.377919	42.147593	44.998779	44.460667	-30.763172	-1881.194525	-1733.422523	34.087438	22.849562	1450.308506	23.844400	17.621090	12.692044	8.178839	-45.000000	-44.999760	45.000000	-17.647718	3328.708849	-2813.072409	25.554779	-3.208653	-719.004949	35.443877	12.112587	-19.253031	
5.8000	37.854737	5.394312	12.121618	-98.382635	788.056812	10.491761	17.457573	42.241646	44.997810	44.678487	-31.158196	-1881.386461	-1733.164916	34.124674	22.594509	1450.532294	23.865425	17.740246	12.344418	8.205748	-45.000000	-44.999570	45.000000	-17.713921	3329.101326	-2812.931581	25.565263	-3.347794	-718.850316	34.623867	12.142451	-19.318611	
5.8100	37.816774	5.438004	12.209997	-101.274830	789.385875	10.245032	17.496891	42.285320	44.996084	44.841305	-31.531795	-1881.626024	-1732.883860	34.144713	22.373133	1450.751206	23.921836	17.869843	11.995564	8.236747	-45.000000	-44.999231	45.000000	-17.781999	3329.533864	-2812.760563	25.563568	-3.543073	-718.669293	33.794275	12.179543	-19.396352	
5.8200	37.757207	5.509915	12.329707	-104.413793	790.848693	10.004865	17.541512	42.262738	44.992964	44.939012	-31.917821	-1881.920441	-1732.575384	34.164964	22.169640	1450.955353	24.022649	18.000783	11.637206	8.287239	-45.000000	-44.998621	45.000000	-17.891401	3330.003832	-2812.558382	25.554946	-3.820920	-718.462452	32.942313	12.223032	-19.481040	
5.8300	37.683128	5.606615	12.475437	-107.789037	792.446392	9.778744	17.589167	42.187921	44.987457	44.987980	-32.321015	-1882.255301	-1732.247148	34.180083	21.976697	1451.146169	24.171867	18.134071	11.276137	8.358481	-45.000000	-44.997532	45.000000	-18.039869	3330.506979	-2812.329753	25.534444	-4.193713	-718.223251	32.048646	12.274639	-19.573589	
5.8400	37.602784	5.728948	12.641017	-111.391729	794.175622	9.572683	17.682933	42.068575	44.977365	45.000000	-32.764245	-1882.627692	-1731.900792	34.206053	21.771274	1451.318136	24.373033	18.260732	10.902474	8.458074	-45.000000	-44.995575	45.000000	-18.251616	3331.031835	-2812.078692	25.509159	-4.668150	-717.955587	31.102117	12.332615	-19.669032	
5.8500	37.533602	5.842207	12.783804	-115.212899	796.029412	9.391011	17.751807	41.938899	44.959920	45.000000	-33.184787	-1883.020084	-1731.553425	34.225515	21.590686	1451.480152	24.632276	18.387285	10.531538	8.562186	-45.000000	-44.992083	45.000000	-18.469648	3331.563242	-2811.810527	25.469791	-5.247659	-717.661994	30.110310	12.398092	-19.773662	
5.8600	37.483319	5.946531	12.894057	-119.243088	797.997096	9.236154	17.821524	41.808727	44.926905	45.000000	-33.590950	-1883.423818	-1731.204402	34.248472	21.427056	1451.629633	24.945828	18.506130	10.156864	8.676694	-45.000000	-44.985793	45.000000	-18.705509	3332.090385	-2811.531307	25.419501	-5.934361	-717.341794	29.069595	12.465963	-19.884712	
